<svg width="167" height="280" viewBox="0 0 167 280" fill="none" xmlns="http://www.w3.org/2000/svg">
<path d="M46 10C49.6 5.6 64.5 1 84 1C103.5 1 122.5 10 122.5 10V22C113.5 22 110.5 22 109 22.5C107.5 23 105 27 105 30.5H132.5V26H136.5V9.5H165V61.5H136.5V51H132.5V47H106.5L112 102.5L121 114.5V220L112.5 233H132V229.5H137.5V214.5H164V267H137.5V254H132V250H108V262H117.5V266H50V262H60V250L36 249.5V254H29V267.5H3.00001L3.00001 213.5H29V229.5H36V233.5H55L47 220V114L56 101.5C58 83.6667 61.9 47.8 61.5 47C61.1 46.2 43.6667 46.3333 35 46.5V50.5H30.5V63H2.5V9.5H30.5L30.5 26H35V30.5L63 30.5C63 30.5 63 25 61.5 23.5C60 22 50.5 22 46 22V10Z" stroke="#1F3D5C" stroke-width="2"/>
<rect y="7" width="32" height="58" rx="4" fill="#9D1B51"/>
<rect x="135" y="7" width="32" height="58" rx="4" fill="#9D1B51"/>
<rect y="212" width="32" height="58" rx="4" fill="#9D1B51"/>
<rect x="135" y="212" width="32" height="58" rx="4" fill="#9D1B51"/>
<rect x="69" y="250" width="30" height="12" stroke="#1F3D5C" stroke-width="2"/>
<rect x="1" y="69" width="30" height="6" rx="1" fill="#4381C1"/>
<rect x="136" y="69" width="30" height="6" rx="1" fill="#4381C1"/>
<rect x="1" y="274" width="30" height="6" rx="1" fill="#4381C1"/>
<rect x="136" y="274" width="30" height="6" rx="1" fill="#4381C1"/>
</svg>
